<svg width="128" height="128" xmlns="http://www.w3.org/2000/svg">
 <!-- Created with Method Draw - http://github.com/duopixel/Method-Draw/ -->
 <defs>
  <linearGradient y2="0" x2="1" y1="1" x1="1" id="svg_8">
   <stop offset="0" stop-color="#1e1e1e"/>
   <stop offset="1" stop-color="#515151"/>
  </linearGradient>
  <linearGradient id="svg_18" x1="0" y1="0" x2="1" y2="1">
   <stop stop-color="#379b6b" offset="0"/>
   <stop stop-color="#1e543a" offset="1"/>
  </linearGradient>
 </defs>
 <g>
  <title>background</title>
  <rect fill="none" id="canvas_background" height="130" width="130" y="-1" x="-1"/>
  <g display="none" id="canvasGrid">
   <rect fill="url(#gridpattern)" stroke-width="0" y="0" x="0" height="100%" width="100%" id="svg_1"/>
  </g>
 </g>
 <g>
  <title>Layer 1</title>
  <g id="svg_21"/>
  <g id="svg_22"/>
  <ellipse fill="url(#svg_18)" stroke-width="5" cx="64" cy="64" id="svg_17" rx="60" ry="60" stroke="#3d3d3d"/>
  <path id="svg_6" d="m121.69352,43.14912c-4.93305,-15.39818 -18.16819,-26.2964 -32.4866,-23.15589c-14.31841,3.14051 -13.65639,7.48705 -13.60886,12.03348c0.04753,4.54643 3.93362,20.27532 16.43177,36.67243c12.49815,16.39713 34.59674,-10.15184 29.66369,-25.55002z" stroke-linecap="null" stroke-linejoin="null" stroke-width="0" fill="#21563c" stroke="#1c1c1c"/>
  <path fill="#21563c" stroke-width="0" stroke-linejoin="null" stroke-linecap="null" d="m79.54264,114.87967c2.06155,2.75424 7.62724,4.52189 6.52304,-9.35124l10.96115,-13.60585c12.16792,3.90135 6.77864,10.14564 2.57001,19.71423c-4.20862,9.56858 -12.98617,13.3737 -20.23431,11.90277c-7.24813,-1.47092 -3.94301,-14.16836 0.1801,-8.6599l0,-0.00001l0.00001,0z" id="svg_7" stroke="#1c1c1c"/>
  <ellipse transform="matrix(1.253265978219777,0.2209846059641341,-0.2209846059641341,1.253265978219777,13.286796318640555,-46.45763928463876) " ry="39.83319" rx="39.83319" id="svg_4" cy="83.94179" cx="57.93112" stroke-width="0" fill="#21563c" stroke="#1c1c1c"/>
  <path fill="#21563c" stroke-width="0" stroke-linejoin="null" stroke-linecap="null" d="m39.05023,108.09529c-3.05057,1.51488 -8.74742,0.5574 -1.56001,-11.29401l-3.56555,-17.10127c-12.47116,-2.06048 -10.51862,5.95119 -11.09565,16.38603c-0.57703,10.43484 5.4542,17.81561 12.50088,19.80257c7.04668,1.98696 9.82148,-10.82308 3.72035,-7.79334l-0.00001,0.00001l-0.00001,0.00001z" id="svg_13" stroke="#1c1c1c"/>
  <ellipse transform="matrix(1.253265978219777,0.2209846059641341,-0.2209846059641341,1.253265978219777,12.147944592902752,-45.74958922581479) " ry="39.83319" rx="39.83319" id="svg_5" cy="79.1056" cx="54.30394" stroke-width="0" fill="url(#svg_8)" stroke="#1c1c1c"/>
  <path fill="#848484" stroke-width="0" stroke-linejoin="null" stroke-linecap="null" stroke-opacity="null" d="m27.64043,31.66818c1.10015,-6.23923 21.92261,-16.23373 41.2409,-13.38184c19.31828,2.8519 20.9155,8.34445 19.81536,14.58368c-1.10015,6.23923 -17.1569,-1.36095 -29.36534,3.41683c-12.20845,4.77778 -32.79106,1.62056 -31.69091,-4.61867l-0.00001,0z" id="svg_9" stroke="#000000"/>
  <path id="svg_2" d="m12.28675,19.46422c9.47397,-12.85784 24.79002,-18.72171 36.4004,-11.00926c11.61038,7.71246 9.58163,11.58454 8.02953,15.84891c-1.5521,4.26437 -10.2107,17.78129 -26.70192,29.0668c-16.49122,11.28552 -27.20198,-21.04862 -17.72801,-33.90646l0,0.00001z" stroke-linecap="null" stroke-linejoin="null" stroke-width="0" fill="#dbdbdb" stroke="#1c1c1c"/>
  <path id="svg_12" d="m123.58047,38.11164c-4.93305,-15.39818 -18.16819,-26.2964 -32.4866,-23.15589c-14.31841,3.14051 -13.65639,7.48705 -13.60886,12.03348c0.04753,4.54643 3.93362,20.27532 16.43177,36.67243c12.49815,16.39713 34.59674,-10.15184 29.66369,-25.55002z" stroke-linecap="null" stroke-linejoin="null" stroke-width="0" fill="#dbdbdb" stroke="#2d2d2d"/>
  <path fill="#dbdbdb" stroke-width="0" stroke-linejoin="null" stroke-linecap="null" d="m78.83242,114.98978c2.3804,2.48385 8.11941,3.56336 5.34063,-10.0734l9.22991,-14.83491c12.55129,2.39665 7.9592,9.24852 4.94226,19.25695c-3.01694,10.00842 -11.26814,14.8501 -18.64118,14.26919c-7.37303,-0.58091 -5.63244,-13.58548 -0.87162,-8.61781l0,-0.00001l0,-0.00001z" id="svg_15" stroke="#1c1c1c"/>
  <path fill="#dbdbdb" stroke-width="0" stroke-linejoin="null" stroke-linecap="null" d="m32.03567,107.0198c-3.05057,1.51488 -8.74742,0.5574 -1.56001,-11.29401l-3.56555,-17.10127c-12.47116,-2.06048 -10.51862,5.95119 -11.09565,16.38603c-0.57703,10.43484 5.4542,17.81561 12.50088,19.80257c7.04668,1.98696 9.82148,-10.82308 3.72035,-7.79334l-0.00001,0.00001l-0.00001,0.00001z" id="svg_16" stroke="#1c1c1c"/>
 </g>
</svg>